<svg id="Layer_1" data-name="Layer 1" xmlns="http://www.w3.org/2000/svg" viewBox="0 0 1080 1080"><defs><style>.cls-1{fill:#fff;}.cls-2{fill:#0000d1;}</style></defs><rect class="cls-1" width="1080" height="1080"/><path class="cls-2" d="M623.8,508.54c-.81,2.4-1.93,3.19-4.46,3.19-28.48-.09-57,0-85.43-.07-10.55,0-17-6.5-17-17q-.06-40.38,0-80.74v-.35a2.75,2.75,0,0,0-3.31-2.73,35.08,35.08,0,0,0-7.76,2.82,2.76,2.76,0,0,0-1.51,2.44c-.08,7.12-.22,17.35-.22,18.1v60.16c0,17.46,12.14,29.66,29.71,29.69,25.93.06,51.86,0,77.79,0h0a2.78,2.78,0,0,1,2.41,4.18c-14.46,24.22-49.62,47.62-92.51,38.64-44.81-9.37-74.68-51.14-69.22-97.34,5.29-44.83,42.13-72.68,75.53-76.39a2.76,2.76,0,0,1,3,2.77v95.21c0,5.63,1,6.62,6.54,6.62h72.48a2.78,2.78,0,0,0,2.71-2.11c8.74-36.86-15.1-77.88-54.67-87.18-.07,1.1-.16,2.15-.16,3.19,0,18.73,0,37.45-.09,56.17,0,3.1,1,3.61,3.83,3.59,11.85-.14,23.71-.07,35.56-.07h1.38a2.77,2.77,0,0,1,2.78,2.78v11c-.84.06-1.69.19-2.55.19-16.85,0-33.69,0-50.54,0-2.82,0-4.38-.82-4.36-3.94q0-43.71,0-87.39c0-.43.11-.87.26-2.09,5.5.86,11,1.39,16.28,2.62C610.63,406.14,640.34,459.61,623.8,508.54Z"/><path d="M274.27,648.32v8.26H239.43a6,6,0,0,1-6-6.05V595h8.32v53.36Z"/><path d="M314.78,621.61a19.71,19.71,0,0,0-8-7.88A24.47,24.47,0,0,0,295.06,611a22.79,22.79,0,0,0-11.65,3,21,21,0,0,0-8,8.31,25.9,25.9,0,0,0,0,23.76,21.38,21.38,0,0,0,8.12,8.35,23.07,23.07,0,0,0,11.67,3A26.16,26.16,0,0,0,306,655.11a22.6,22.6,0,0,0,8.27-6.33l1.44-1.83-6.15-5.13-1.48,2a13.16,13.16,0,0,1-5.32,4,18.68,18.68,0,0,1-7.57,1.58,13.93,13.93,0,0,1-10.12-3.71,14.4,14.4,0,0,1-4.07-7.86h36.25l.21-2.15c.06-.62.09-1.47.09-2.58A23.33,23.33,0,0,0,314.78,621.61Zm-33.72,8.29a13.57,13.57,0,0,1,14-11,16.33,16.33,0,0,1,7.61,1.72,12.14,12.14,0,0,1,5,4.69l0,0A3.07,3.07,0,0,1,305,629.9Z"/><path d="M357.57,611.69v.62a2.1,2.1,0,0,1-3.19,1.77l-.22-.12A24.23,24.23,0,0,0,331,614a21.14,21.14,0,0,0-8,8.27A26.08,26.08,0,0,0,323,646a21.14,21.14,0,0,0,8,8.27,22.89,22.89,0,0,0,11.59,3,23.42,23.42,0,0,0,11.52-2.85,20.89,20.89,0,0,0,3.39-2.37l0,4.58h8V611.69ZM342.88,649.3a15.13,15.13,0,0,1-7.6-1.88,13,13,0,0,1-5-5.24,18.33,18.33,0,0,1,0-16.09,12.93,12.93,0,0,1,5.07-5.24,16.16,16.16,0,0,1,15.13,0,12.73,12.73,0,0,1,5.09,5.24,18.24,18.24,0,0,1,0,16.09,12.67,12.67,0,0,1-5.09,5.24A14.9,14.9,0,0,1,342.88,649.3Z"/><path d="M414.93,631.05v25.53h-8.16V631.21c0-4-1-7.06-2.92-9.08s-4.69-3-8.42-3a13.57,13.57,0,0,0-6.84,1.67,11.76,11.76,0,0,0-4.58,4.54,12.86,12.86,0,0,0-1.64,6.51v24.72h-8.18V611.69h4a4,4,0,0,1,4,4h0a21.23,21.23,0,0,1,3-2,21.53,21.53,0,0,1,10.4-2.56c5.95,0,10.72,1.81,14.17,5.35a17.43,17.43,0,0,1,3.88,6.31A24.4,24.4,0,0,1,414.93,631.05Z"/><path d="M470.23,639.66a15.34,15.34,0,0,1-7,13.24c-4.37,3-10.27,4.56-17.56,4.56a33.75,33.75,0,0,1-14.23-3.09,26.77,26.77,0,0,1-10.66-8.44l-1.21-1.64,6-5.95,1.6,2.45a17.35,17.35,0,0,0,7.54,6,25.78,25.78,0,0,0,11,2.47c5.26,0,9.4-1,12.32-2.84a7.51,7.51,0,0,0,3.9-6.73,7,7,0,0,0-1.24-4.31,11.52,11.52,0,0,0-4.84-3.13,66.74,66.74,0,0,0-11.31-3,60.89,60.89,0,0,1-12.83-3.75,17.9,17.9,0,0,1-7.52-5.76,14.94,14.94,0,0,1-2.45-8.67,14.59,14.59,0,0,1,3.15-9.22,19,19,0,0,1,8.5-5.95,36.07,36.07,0,0,1,24.25.24,26,26,0,0,1,9.66,6.67l1.44,1.61-5.51,6.08-1.75-2a18.21,18.21,0,0,0-6.88-4.77,24.36,24.36,0,0,0-9.29-1.74c-4.86,0-8.76.93-11.58,2.74-2.55,1.65-3.73,3.67-3.73,6.33a6.73,6.73,0,0,0,1.2,4.2,10.92,10.92,0,0,0,4.62,3.07,62.2,62.2,0,0,0,10.36,2.83,73.5,73.5,0,0,1,13.76,3.88,18.09,18.09,0,0,1,7.82,5.76A14.83,14.83,0,0,1,470.23,639.66Z"/><path d="M516.36,622.3a21.53,21.53,0,0,0-8.22-8.34,24.47,24.47,0,0,0-23.48,0,21.39,21.39,0,0,0-8.19,8.34,23.93,23.93,0,0,0-2.94,11.84A24.17,24.17,0,0,0,476.45,646a21.67,21.67,0,0,0,8.21,8.35,24.54,24.54,0,0,0,23.48,0,21.63,21.63,0,0,0,8.22-8.35,25.29,25.29,0,0,0,0-23.67Zm-20,27a14.54,14.54,0,0,1-7.58-2,13.44,13.44,0,0,1-5.2-5.37,17.1,17.1,0,0,1,0-15.67,13.44,13.44,0,0,1,5.2-5.37,15.62,15.62,0,0,1,15.15,0,13.72,13.72,0,0,1,5.24,5.39,16.71,16.71,0,0,1,0,15.63,13.72,13.72,0,0,1-5.24,5.39A14.58,14.58,0,0,1,496.37,649.3Z"/><path d="M582.23,653.83l-2.06,1a20.82,20.82,0,0,1-9.27,2.45c-4.8,0-8.31-1.39-10.4-4.11-2-2.56-2.94-6.16-2.94-11V619.63H536.5v37h-8.16v-37h-8.21V614a2.32,2.32,0,0,1,2.32-2.33h5.89v-2c0-10.14,4.94-15.7,13.91-15.7a14.55,14.55,0,0,1,9.55,3.3l1.73,1.43L549,605,547,603.44a7.37,7.37,0,0,0-4.71-1.52c-2,0-3.43.5-4.33,1.54-.68.77-1.49,2.47-1.49,6.24v2h15.85a5.21,5.21,0,0,0,5.21-5.21v-6.43l8.18-.77v12.41h13.89v5a2.91,2.91,0,0,1-2.91,2.91h-11v22.55c0,3.39.64,5.11,1.17,6s1.9,1.32,4,1.32a9.74,9.74,0,0,0,2.68-.47,17.25,17.25,0,0,0,3.17-1.22l2.2-1.09Z"/><polygon points="667.81 594.96 646.35 656.58 642.81 656.58 642.56 656.59 642.32 656.58 638.77 656.58 623.53 609.9 608.04 656.58 604.48 656.58 604.24 656.59 603.97 656.58 600.49 656.58 579.37 594.96 588.22 594.96 604.18 642.29 619.78 594.96 623.46 594.96 623.55 594.7 623.64 594.96 627.3 594.96 642.69 642.31 658.95 594.96 667.81 594.96"/><path d="M707.85,622.3a21.53,21.53,0,0,0-8.22-8.34,24.45,24.45,0,0,0-23.47,0,21.53,21.53,0,0,0-8.22,8.34,25.29,25.29,0,0,0,0,23.67,21.63,21.63,0,0,0,8.22,8.35,24.52,24.52,0,0,0,23.47,0,21.63,21.63,0,0,0,8.22-8.35,25.44,25.44,0,0,0,0-23.67Zm-20,27a14.57,14.57,0,0,1-7.58-2,13.44,13.44,0,0,1-5.2-5.37,17.1,17.1,0,0,1,0-15.67,13.44,13.44,0,0,1,5.2-5.37,15.62,15.62,0,0,1,15.15,0,13.72,13.72,0,0,1,5.24,5.39,15.91,15.91,0,0,1,1.94,7.82,15.63,15.63,0,0,1-1.94,7.81,13.72,13.72,0,0,1-5.24,5.39A14.58,14.58,0,0,1,687.86,649.3Z"/><path d="M747.59,615.05l-3.73,7.06-2.17-1.28a10.46,10.46,0,0,0-5.52-1.45,9.34,9.34,0,0,0-5.5,1.75,12.58,12.58,0,0,0-4.11,5.07,17.23,17.23,0,0,0-1.56,7.37v23h-8.18V611.69h3.92a4.09,4.09,0,0,1,4.09,4.09h0a21.44,21.44,0,0,1,2-1.6,16.41,16.41,0,0,1,9.44-2.88,17.36,17.36,0,0,1,9.48,2.56Z"/><path d="M788,656.58H775.89l-15-13.21a2.1,2.1,0,0,0-3.49,1.57v11.64h-8.15V595h8.15v27.42a2,2,0,0,0,3.36,1.45l12.91-12.14h11.56l-20.72,19.5a3.29,3.29,0,0,0,.09,4.85Z"/><path d="M819.09,636.75a11.17,11.17,0,0,1,2.06,6.81,11.89,11.89,0,0,1-5.54,10.19c-3.4,2.36-7.86,3.56-13.25,3.56a28,28,0,0,1-11.1-2.22,21.56,21.56,0,0,1-8.19-5.88l-1.32-1.6,5.31-5.73,1.73,2a15.78,15.78,0,0,0,5.71,3.94,20.24,20.24,0,0,0,7.86,1.52,15.47,15.47,0,0,0,8.23-1.88c2.21-1.38,2.47-2.9,2.47-3.94a3.28,3.28,0,0,0-.68-2.22,7.12,7.12,0,0,0-3.09-1.81,55.44,55.44,0,0,0-7.95-2,53.54,53.54,0,0,1-9.7-2.62,13,13,0,0,1-5.82-4.12,10.76,10.76,0,0,1-1.92-6.49,11.54,11.54,0,0,1,5.44-9.93c3.32-2.2,7.75-3.33,13.17-3.33a27.79,27.79,0,0,1,9.29,1.45,25.23,25.23,0,0,1,7.67,4.37l1.81,1.51-4.92,6.12-1.85-1.5a18.41,18.41,0,0,0-5.35-3.06,19.89,19.89,0,0,0-6.55-1c-3.66,0-6.47.57-8.33,1.7a3.93,3.93,0,0,0-2.21,3.63,3,3,0,0,0,.57,2,6.52,6.52,0,0,0,2.79,1.62,49.65,49.65,0,0,0,7.31,1.85A54.47,54.47,0,0,1,813,632.38,13.75,13.75,0,0,1,819.09,636.75Z"/><path d="M835.08,607.36v1.91h-2.86v7.45H830v-7.45h-2.85v-1.91Z"/><path d="M844.65,607.36h2v9.36h-2.18v-5.86l-2.75,3.37h-.43l-2.78-3.38v5.87h-2.18v-9.36h2l3.19,4Z"/></svg>