<svg id="Layer_1" data-name="Layer 1" xmlns="http://www.w3.org/2000/svg" viewBox="0 0 1080 1080"><defs><style>.cls-1{fill:#0000d1;}.cls-2{fill:#fff;}</style></defs><rect width="1080" height="1080"/><path class="cls-1" d="M627.08,501.82c-.84,2.5-2,3.32-4.63,3.32-29.6-.1-59.19,0-88.78-.08-11,0-17.68-6.74-17.68-17.68q-.06-42,0-83.9v-.37a2.87,2.87,0,0,0-3.45-2.83,36.28,36.28,0,0,0-8.06,2.93,2.85,2.85,0,0,0-1.56,2.54c-.09,7.4-.23,18-.23,18.8v62.52c0,18.14,12.61,30.82,30.87,30.85,26.94.06,53.88,0,80.83,0h0a2.89,2.89,0,0,1,2.5,4.34c-15,25.17-51.56,49.49-96.12,40.16-46.57-9.74-77.61-53.15-71.93-101.15,5.49-46.59,43.78-75.53,78.48-79.39a2.88,2.88,0,0,1,3.15,2.88v98.94c0,5.85,1,6.88,6.8,6.88h75.31a2.88,2.88,0,0,0,2.82-2.19c9.08-38.31-15.69-80.92-56.81-90.59-.07,1.14-.17,2.23-.17,3.31,0,19.46.06,38.92-.09,58.37,0,3.22,1.08,3.75,4,3.74,12.31-.16,24.64-.08,37-.08h1.44a2.88,2.88,0,0,1,2.88,2.88v11.41c-.87.06-1.75.19-2.65.19-17.51,0-35,0-52.51,0-2.94,0-4.56-.86-4.54-4.1q.06-45.42,0-90.81c0-.44.12-.9.27-2.18,5.71.9,11.39,1.45,16.92,2.73C613.4,395.42,644.27,451,627.08,501.82Z"/><path class="cls-2" d="M263.87,647.08v8.58h-36.2a6.29,6.29,0,0,1-6.29-6.29V591.63H230v55.45Z"/><path class="cls-2" d="M306,619.32a20.57,20.57,0,0,0-8.32-8.19,25.45,25.45,0,0,0-12.18-2.88,23.54,23.54,0,0,0-12.1,3.14A21.71,21.71,0,0,0,265,620a26.9,26.9,0,0,0,0,24.69,22.1,22.1,0,0,0,8.43,8.67,24,24,0,0,0,12.12,3.12,27,27,0,0,0,11.24-2.37,23.42,23.42,0,0,0,8.6-6.58l1.49-1.9-6.39-5.32L299,642.42a13.76,13.76,0,0,1-5.52,4.11,19.33,19.33,0,0,1-7.88,1.65,14.46,14.46,0,0,1-10.51-3.86,15,15,0,0,1-4.23-8.17h37.67l.22-2.23c.06-.64.1-1.52.1-2.68A24.29,24.29,0,0,0,306,619.32Zm-35.05,8.61a14.44,14.44,0,0,1,4.17-7.6,14.27,14.27,0,0,1,10.38-3.83,16.9,16.9,0,0,1,7.91,1.78,12.77,12.77,0,0,1,5.19,4.87l0,.05a3.18,3.18,0,0,1-2.82,4.73Z"/><path class="cls-2" d="M350.43,609v.64a2.18,2.18,0,0,1-3.31,1.84l-.23-.13a24.06,24.06,0,0,0-12-3,23.74,23.74,0,0,0-12.05,3.08,22,22,0,0,0-8.32,8.59,27.18,27.18,0,0,0,0,24.63,22.06,22.06,0,0,0,8.32,8.6,23.84,23.84,0,0,0,12.05,3.07,24.42,24.42,0,0,0,12-3,21.06,21.06,0,0,0,3.52-2.47l0,4.76h8.31V609ZM335.16,648.1a15.68,15.68,0,0,1-7.89-2A13.43,13.43,0,0,1,322,640.7,19,19,0,0,1,322,624a13.44,13.44,0,0,1,5.27-5.45,16.74,16.74,0,0,1,15.72,0A13.29,13.29,0,0,1,348.3,624a19,19,0,0,1,0,16.72,13.21,13.21,0,0,1-5.29,5.44A15.48,15.48,0,0,1,335.16,648.1Z"/><path class="cls-2" d="M410,629.13v26.53h-8.47V629.3c0-4.15-1-7.34-3-9.44s-4.87-3.11-8.75-3.11a14.19,14.19,0,0,0-7.11,1.74,12.41,12.41,0,0,0-4.76,4.72,13.39,13.39,0,0,0-1.7,6.76v25.69h-8.5V609h4.17a4.15,4.15,0,0,1,4.15,4.15h0a22.07,22.07,0,0,1,3.1-2.08,22.33,22.33,0,0,1,10.81-2.66c6.18,0,11.14,1.88,14.72,5.56a18,18,0,0,1,4,6.56A25.45,25.45,0,0,1,410,629.13Z"/><path class="cls-2" d="M467.5,638.07a16,16,0,0,1-7.26,13.77c-4.55,3.15-10.68,4.74-18.25,4.74a35.17,35.17,0,0,1-14.78-3.21,28,28,0,0,1-11.09-8.78l-1.25-1.7,6.19-6.19,1.66,2.55a18.12,18.12,0,0,0,7.83,6.28A26.78,26.78,0,0,0,442,648.1c5.46,0,9.77-1,12.8-3a7.8,7.8,0,0,0,4.06-7,7.18,7.18,0,0,0-1.3-4.48,11.93,11.93,0,0,0-5-3.25,69.58,69.58,0,0,0-11.75-3.08,62.89,62.89,0,0,1-13.33-3.89,18.59,18.59,0,0,1-7.81-6,15.48,15.48,0,0,1-2.55-9,15.19,15.19,0,0,1,3.27-9.58,19.77,19.77,0,0,1,8.83-6.18,35.19,35.19,0,0,1,12.48-2.06,34.74,34.74,0,0,1,12.72,2.31,27.11,27.11,0,0,1,10.05,6.93l1.48,1.67-5.71,6.32-1.82-2.07a19,19,0,0,0-7.15-5,25.46,25.46,0,0,0-9.65-1.8c-5.05,0-9.11,1-12.05,2.84-2.64,1.72-3.87,3.82-3.87,6.58a7,7,0,0,0,1.25,4.37,11.45,11.45,0,0,0,4.8,3.19,64.15,64.15,0,0,0,10.77,2.93,76.11,76.11,0,0,1,14.29,4,18.77,18.77,0,0,1,8.13,6A15.35,15.35,0,0,1,467.5,638.07Z"/><path class="cls-2" d="M515.43,620a22.31,22.31,0,0,0-8.54-8.67,25.39,25.39,0,0,0-24.39,0A22.26,22.26,0,0,0,474,620a26.38,26.38,0,0,0,0,24.59,22.54,22.54,0,0,0,8.54,8.68,25.46,25.46,0,0,0,24.39,0,22.4,22.4,0,0,0,8.54-8.68,26.23,26.23,0,0,0,0-24.59ZM494.66,648.1a15.11,15.11,0,0,1-7.87-2,14,14,0,0,1-5.41-5.58,17.74,17.74,0,0,1,0-16.29,14,14,0,0,1,5.41-5.58,16.2,16.2,0,0,1,15.74,0,14.23,14.23,0,0,1,5.44,5.6,17.35,17.35,0,0,1,0,16.25,14.23,14.23,0,0,1-5.44,5.6A15.19,15.19,0,0,1,494.66,648.1Z"/><path class="cls-2" d="M583.88,652.8l-2.13,1.07a21.62,21.62,0,0,1-9.64,2.55c-5,0-8.63-1.45-10.8-4.27-2.06-2.66-3.06-6.4-3.06-11.45V617.26H536.36v38.4h-8.48v-38.4h-8.53v-5.83a2.41,2.41,0,0,1,2.41-2.41h6.12v-2.08c0-10.53,5.13-16.31,14.45-16.31a15.15,15.15,0,0,1,9.93,3.43l1.8,1.49L549.32,602l-2-1.57a7.68,7.68,0,0,0-4.9-1.58c-2.07,0-3.56.52-4.5,1.6-.71.8-1.55,2.57-1.55,6.48V609h16.48a5.42,5.42,0,0,0,5.41-5.42v-6.68l8.5-.81V609h14.43v5.22a3,3,0,0,1-3,3h-11.4V640.7c0,3.52.67,5.3,1.21,6.18s2,1.37,4.15,1.37a10.1,10.1,0,0,0,2.78-.48,17.74,17.74,0,0,0,3.29-1.28l2.29-1.13Z"/><polygon class="cls-2" points="672.81 591.63 650.51 655.66 646.83 655.66 646.58 655.67 646.32 655.66 642.64 655.66 626.8 607.16 610.71 655.66 607 655.66 606.75 655.67 606.48 655.66 602.85 655.66 580.91 591.63 590.11 591.63 606.69 640.82 622.9 591.63 626.72 591.63 626.82 591.36 626.92 591.63 630.72 591.63 646.71 640.83 663.61 591.63 672.81 591.63"/><path class="cls-2" d="M714.42,620a22.45,22.45,0,0,0-8.54-8.67,25.39,25.39,0,0,0-24.39,0A22.38,22.38,0,0,0,673,620a26.31,26.31,0,0,0,0,24.59,22.47,22.47,0,0,0,8.54,8.68,25.46,25.46,0,0,0,24.39,0,22.54,22.54,0,0,0,8.54-8.68,26.46,26.46,0,0,0,0-24.59ZM693.65,648.1a15.15,15.15,0,0,1-7.88-2,14,14,0,0,1-5.4-5.58,17.74,17.74,0,0,1,0-16.29,14,14,0,0,1,5.4-5.58,16.22,16.22,0,0,1,15.75,0,14.23,14.23,0,0,1,5.44,5.6,16.58,16.58,0,0,1,2,8.13,16.31,16.31,0,0,1-2,8.12,14.23,14.23,0,0,1-5.44,5.6A15.19,15.19,0,0,1,693.65,648.1Z"/><path class="cls-2" d="M755.71,612.5l-3.87,7.34-2.26-1.33a10.92,10.92,0,0,0-5.73-1.5,9.63,9.63,0,0,0-5.72,1.82,13,13,0,0,0-4.27,5.26,18.07,18.07,0,0,0-1.62,7.66v23.91h-8.5V609h4.07a4.25,4.25,0,0,1,4.25,4.25h0a20.55,20.55,0,0,1,2.08-1.67,17,17,0,0,1,9.81-3,18,18,0,0,1,9.84,2.66Z"/><path class="cls-2" d="M797.67,655.66H785.12l-15.6-13.73a2.19,2.19,0,0,0-3.63,1.64v12.09h-8.47v-64h8.47v28.49a2.07,2.07,0,0,0,3.5,1.51L782.79,609h12l-21.53,20.26a3.41,3.41,0,0,0,.09,5Z"/><path class="cls-2" d="M830,635.06a11.61,11.61,0,0,1,2.13,7.07,12.36,12.36,0,0,1-5.75,10.59c-3.53,2.45-8.17,3.7-13.77,3.7a29,29,0,0,1-11.53-2.31,22.37,22.37,0,0,1-8.52-6.11l-1.37-1.66,5.52-6,1.8,2a16.35,16.35,0,0,0,5.94,4.09,20.76,20.76,0,0,0,8.16,1.59c3.62,0,6.5-.67,8.56-2,2.29-1.43,2.56-3,2.56-4.09a3.46,3.46,0,0,0-.7-2.31,7.54,7.54,0,0,0-3.21-1.88,57.52,57.52,0,0,0-8.27-2.08,55.59,55.59,0,0,1-10.08-2.72,13.53,13.53,0,0,1-6-4.29,11.21,11.21,0,0,1-2-6.73,12,12,0,0,1,5.66-10.32c3.45-2.29,8-3.47,13.69-3.47a28.83,28.83,0,0,1,9.65,1.51,26.45,26.45,0,0,1,8,4.54l1.88,1.57-5.11,6.36-1.92-1.56a19.12,19.12,0,0,0-5.56-3.17,20.55,20.55,0,0,0-6.81-1c-3.8,0-6.72.58-8.66,1.76a4.11,4.11,0,0,0-2.29,3.78,3.15,3.15,0,0,0,.59,2.07,6.84,6.84,0,0,0,2.9,1.69,52.47,52.47,0,0,0,7.59,1.92,55.51,55.51,0,0,1,10.61,2.8A14.28,14.28,0,0,1,830,635.06Z"/><path class="cls-2" d="M846.63,604.51v2h-3v7.74h-2.28V606.5h-3v-2Z"/><path class="cls-2" d="M856.57,604.51h2v9.73h-2.27v-6.09l-2.86,3.5h-.44l-2.89-3.51v6.1h-2.27v-9.73h2l3.32,4.14Z"/></svg>